<svg width="48" height="48" viewBox="0 0 48 48" fill="none" xmlns="http://www.w3.org/2000/svg">
<path d="M24 3C12.4172 3 3 12.4172 3 24C3 35.5828 12.4172 45 24 45C35.5828 45 45 35.5828 45 24C45 12.4172 35.5828 3 24 3Z" fill="#FDDD4C"/>
<path d="M14.8033 29.4752C14.3441 28.7801 15.499 27.7279 15.0293 26.8445C14.7585 26.335 14.3158 26.0175 13.7843 25.9509C13.2741 25.8868 12.7486 26.0736 12.4136 26.4386C11.8847 27.0141 11.8025 27.7975 11.9048 28.0747C11.9422 28.1764 12.0011 28.2041 12.0432 28.21C12.3312 28.2479 12.4933 27.5086 12.5928 27.3547C12.8678 26.9302 13.4921 26.8018 13.9234 27.0808C14.741 27.6096 14.032 28.4643 14.0932 29.1862C14.1527 29.8891 14.5906 30.1715 14.9838 30.2012C15.3662 30.2158 15.6337 30.0032 15.7012 29.8481C15.8631 29.4779 15.1811 30.0472 14.8033 29.4752Z" fill="black"/>
<path d="M31.8866 23.0938C31.6721 23.0641 31.4377 23.0648 31.1939 23.0938C31.0087 22.8601 30.8428 22.4819 30.7492 22.0404C30.5827 21.255 30.6001 20.6861 31.0648 20.6122C31.5295 20.5382 31.7542 21.0134 31.9207 21.7988C32.0323 22.3268 32.0109 22.8119 31.8866 23.0938Z" fill="black"/>
<path d="M26.7969 23.561C26.8153 23.7389 26.8218 23.9189 26.8166 24.0846C27.2662 24.1109 27.5847 24.3245 27.6695 24.46C27.713 24.53 27.6956 24.5755 27.6815 24.5966C27.635 24.669 27.5353 24.6578 27.3263 24.6344C27.1438 24.6139 26.9472 24.5959 26.743 24.6053C26.6318 24.9462 26.3022 24.9781 26.0706 24.726C25.9089 24.7753 25.5911 24.9782 25.4965 24.7577C25.4956 24.6483 25.61 24.4892 25.8173 24.3488C25.6758 24.079 25.581 23.7901 25.525 23.491C25.2313 23.5439 24.967 23.6262 24.7599 23.6907C24.6626 23.721 24.2779 23.8948 24.2328 23.6989C24.2027 23.5636 24.4133 23.3405 24.636 23.1795C24.8847 23.0029 25.1608 22.8773 25.4469 22.8049C25.4407 22.3789 25.5494 22.0817 25.8589 22.0325C26.2427 21.9714 26.4805 22.2669 26.6451 22.814C27.1089 22.9428 27.572 23.2624 27.7765 23.5927C27.8561 23.7207 27.8714 23.8197 27.82 23.8718C27.6914 24.0051 26.9793 23.6189 26.7969 23.561Z" fill="black"/>
<path d="M29.8466 25.4757C30.1408 25.6182 30.4644 25.5621 30.57 25.3503C30.6757 25.1384 30.5225 24.8513 30.2283 24.7088C29.9342 24.5662 29.6105 24.6223 29.5049 24.8342C29.3993 25.046 29.5524 25.3331 29.8466 25.4757Z" fill="black"/>
<path d="M31.2948 24.4236C31.3001 24.0996 31.4987 23.8409 31.7374 23.8448C31.9761 23.8494 32.1653 24.1148 32.16 24.4382C32.1546 24.7616 31.956 25.0203 31.7173 25.0163C31.4786 25.0124 31.2894 24.747 31.2948 24.4236Z" fill="black"/>
<path fill-rule="evenodd" clip-rule="evenodd" d="M37.7677 28.3922C37.7658 28.3855 37.7724 28.4087 37.7677 28.3922C38.2471 28.3922 39 28.9361 39 30.2501C39 31.5576 38.4504 33.0386 38.3207 33.3673C36.3409 38.0506 31.6157 40.6576 25.9873 40.4926C20.7399 40.3388 16.2648 37.6058 14.3064 33.1501C13.1223 33.1515 11.9014 32.6373 10.9733 31.8255C9.99515 30.9702 9.39205 29.8634 9.27438 28.709C9.18277 27.8101 9.29443 26.9739 9.57994 26.2446L8.48005 25.3246C3.44666 21.1296 19.1894 3.85747 24.2241 8.19234C24.2495 8.21412 25.9371 9.84827 25.9411 9.85223C28.3688 8.83478 34.8733 6.8976 34.8806 11.4072C34.8833 12.9047 33.9165 14.6511 32.3673 16.2357C34.1576 17.8747 33.6855 20.2027 33.9706 22.3387L34.5924 22.509C35.7779 22.837 36.621 23.2746 37.0336 23.7023C37.4461 24.1293 37.6507 24.5431 37.7249 25.0282C37.7945 25.4196 37.7851 26.1106 37.2623 26.8835C37.4505 27.382 37.6224 27.8791 37.7677 28.3922ZM14.2175 31.9351C14.3934 31.939 14.5679 31.9278 14.739 31.8988C16.5784 31.5892 17.0598 29.6172 16.7569 27.6807C16.4146 25.4942 14.9162 24.7233 13.8992 24.6685C13.6164 24.654 13.3536 24.6791 13.137 24.722C11.3217 25.083 10.2967 26.6076 10.4986 28.5876C10.6812 30.3795 12.5172 31.8902 14.2175 31.9351ZM10.1061 25.2592C10.7153 24.386 11.7108 23.7544 12.8408 23.5373C14.279 19.7265 16.6807 16.2153 19.8593 13.799C22.2182 11.8566 24.7624 10.4634 24.7624 10.4634C24.7624 10.4634 23.3923 8.89523 22.9785 8.77973C20.433 8.10126 14.9356 11.8434 11.4253 16.7881C10.0052 18.7886 7.9719 22.3315 8.94408 24.1537C9.06376 24.3794 9.74241 24.9596 10.1061 25.2592ZM30.7432 31.0599C30.7472 31.1008 30.7218 31.1431 30.685 31.1583C30.685 31.1583 28.6397 32.0974 25.3909 31.1055C25.5077 32.0793 26.6887 32.4484 27.5137 32.5819C31.5395 33.2656 35.3032 30.9933 36.1503 30.4211C36.2958 30.3228 36.1486 30.5754 36.1222 30.6125C35.0852 31.9331 32.2971 33.4623 28.6698 33.4617C27.0878 33.461 25.5065 32.9112 24.9262 32.0658C24.0255 30.7544 24.8814 28.8397 26.3824 29.039C28.9197 29.3218 31.5209 29.1093 33.8697 28.0332C35.9177 27.0947 36.6912 26.0624 36.5749 25.2262C36.3945 23.9302 34.4731 23.7276 33.5019 23.4125C33.0793 23.2746 32.8707 23.1644 32.8233 22.3796C32.8025 22.0371 32.7424 20.8419 32.7203 20.3475C32.6815 19.4823 32.5759 18.2989 31.8324 17.8105C31.6385 17.6831 31.4232 17.6217 31.1965 17.6098C31.0158 17.6012 30.9086 17.626 30.851 17.6394C30.8381 17.6424 30.8276 17.6448 30.8194 17.6461C30.418 17.7135 30.1719 17.9166 29.8818 18.1562C29.8651 18.17 29.8482 18.1839 29.8312 18.1979C28.9038 18.9609 28.1208 19.0856 27.2496 19.0486C26.9783 19.0373 26.6987 19.0102 26.4037 18.9816C26.1323 18.9553 25.848 18.9277 25.5453 18.91L25.1756 18.8889C23.7166 18.815 22.152 20.0584 21.892 21.8246C21.6014 23.796 22.7033 25.0035 23.4199 25.7888C23.5969 25.9828 23.7505 26.1511 23.8537 26.2987C23.9199 26.3878 23.9968 26.5132 23.9968 26.6327C23.9968 26.7752 23.9032 26.8881 23.8116 26.9844C22.3232 28.4952 21.8472 30.8956 22.4081 32.896C22.4783 33.1455 22.5673 33.3844 22.6722 33.6128C23.9881 36.6481 28.0707 38.0618 32.0584 36.7762C34.8531 35.875 37.3224 33.6975 37.8252 30.6936C37.9449 29.9109 37.7691 29.6086 37.5297 29.4627C37.2763 29.309 36.9727 29.3624 36.9727 29.3624C36.9727 29.3624 36.8343 28.4272 36.4425 27.5771C35.2798 28.4826 33.7834 29.1189 32.6441 29.4416C30.8186 29.9585 28.8469 30.1598 26.9605 29.916C26.1955 29.8172 25.6814 29.7508 25.4611 30.4574C27.9771 31.3668 30.6402 30.9774 30.6402 30.9774C30.6917 30.9722 30.7378 31.0091 30.7432 31.0599ZM23.4839 13.4109C22.1079 14.1059 20.5714 15.3434 19.3238 16.767C19.2796 16.8178 19.3452 16.8878 19.3993 16.8489C20.4771 16.0747 21.9548 15.3553 23.8905 14.8893C26.0588 14.3673 28.1463 14.5864 29.4213 14.8748C29.4855 14.8893 29.5256 14.7804 29.4688 14.7488C28.6263 14.2821 27.3332 13.9653 26.4159 13.9587C26.3711 13.9581 26.3456 13.9066 26.3724 13.871C26.5309 13.6604 26.7482 13.4525 26.9467 13.302C26.9909 13.2677 26.9641 13.1971 26.908 13.2004C25.7668 13.2696 23.1603 14.458 23.1697 14.4148C23.2366 14.098 23.4472 13.6796 23.5562 13.4842C23.5822 13.438 23.5314 13.3872 23.4839 13.4109Z" fill="black"/>
</svg>
